<svg enable-background="new 0 0 32 32" viewBox="0 0 32 32" xmlns="http://www.w3.org/2000/svg"><path d="m26 28.36c-1.731 0-3.161-1.316-3.341-3h-12.318c-.18 1.684-1.61 3-3.341 3s-3.161-1.316-3.341-3h-.659c-1.301 0-2.36-1.059-2.36-2.36v-7c0-.068.019-.131.051-.185l4.039-6.995c.064-.111.183-.18.312-.18h7.599v-4.64c0-.199.161-.36.36-.36h18c.199 0 .36.161.36.36v21c0 .199-.161.36-.36.36h-1.659c-.181 1.684-1.611 3-3.342 3zm0-6c-1.456 0-2.64 1.184-2.64 2.64s1.184 2.64 2.64 2.64 2.64-1.184 2.64-2.64-1.184-2.64-2.64-2.64zm-19 0c-1.456 0-2.64 1.184-2.64 2.64s1.184 2.64 2.64 2.64 2.64-1.184 2.64-2.64-1.184-2.64-2.64-2.64zm22.341 2.28h1.299v-20.28h-17.28v20.28h9.299c.18-1.684 1.609-3 3.341-3s3.161 1.316 3.341 3zm-19 0h2.299v-8.28h-11.28v6.64c0 .904.736 1.64 1.64 1.64h.659c.18-1.684 1.61-3 3.341-3s3.161 1.316 3.341 3zm.019-9h2.28v-6.28h-2.28zm-8.736 0h8.016v-6.28h-4.39zm9.376 2.72h-2v-.72h2zm18-2h-8v-.72h8zm0-3h-10v-.72h10zm0-3h-12v-.72h12zm0-3h-14v-.72h14z"/><path d="m0 0h32v32h-32z" fill="none"/></svg>